<?xml version="1.0" standalone="no"?>
<!DOCTYPE svg PUBLIC "-//W3C//DTD SVG 20010904//EN"
 "http://www.w3.org/TR/2001/REC-SVG-20010904/DTD/svg10.dtd">
<svg version="1.0" xmlns="http://www.w3.org/2000/svg"
width="2113" height="759" viewBox="0 0 1366.000000 768.000000"
 preserveAspectRatio="xMidYMid meet">

<g transform="translate(0.000000,768.000000) scale(0.100000,-0.100000)"
fill="#000000" stroke="none">
<path d="M4227 5215 c-115 -19 -255 -56 -354 -95 -114 -44 -112 -41 -79 -89
l28 -40 43 19 c24 10 85 32 136 48 331 106 645 103 980 -8 218 -72 411 -187
573 -340 l58 -55 29 35 c16 19 29 39 29 45 0 14 -142 135 -236 201 -171 119
-412 222 -622 265 -130 27 -457 35 -585 14z"/>
<path d="M4305 5039 c-150 -17 -353 -77 -476 -140 l-40 -20 33 -45 c18 -25 36
-47 39 -50 4 -2 35 9 70 25 136 61 319 104 500 117 l96 6 -16 57 -17 56 -55 1
c-29 1 -90 -2 -134 -7z"/>
<path d="M3540 4946 c-386 -260 -646 -675 -721 -1151 -20 -126 -15 -388 10
-527 85 -481 368 -892 788 -1148 144 -89 368 -178 516 -205 l35 -7 -16 56
c-10 38 -20 56 -31 56 -38 0 -261 84 -361 136 -154 78 -268 162 -395 289 -126
126 -204 230 -280 377 -268 513 -241 1107 73 1593 109 169 282 344 447 453 55
36 102 67 104 68 7 5 -52 74 -63 74 -6 0 -54 -29 -106 -64z"/>
<path d="M4305 4899 c-265 -34 -523 -152 -734 -338 -91 -81 -111 -108 -86
-117 10 -4 41 18 93 68 145 138 311 237 498 296 161 51 249 63 429 61 137 -2
160 0 163 13 2 11 -10 17 -50 21 -71 9 -227 7 -313 -4z"/>
<path d="M4786 4855 c-3 -9 0 -17 7 -19 163 -46 300 -106 417 -185 72 -49 90
-54 90 -26 0 33 -252 170 -404 219 -92 30 -102 31 -110 11z"/>
<path d="M3425 4608 c-277 -282 -417 -606 -432 -998 -12 -329 70 -617 252
-890 65 -98 237 -290 259 -290 7 0 25 23 40 50 l28 51 -85 89 c-178 187 -296
417 -354 690 -24 116 -24 370 0 493 59 296 207 562 429 767 l59 55 -33 47
c-18 26 -37 48 -42 48 -6 0 -60 -51 -121 -112z"/>
<path d="M3352 4303 c-97 -143 -178 -349 -208 -532 -24 -149 -15 -387 20 -527
40 -161 84 -267 169 -406 44 -72 45 -72 65 -59 10 6 4 21 -23 62 -85 127 -156
308 -192 485 -23 119 -23 357 1 469 38 177 104 341 192 477 35 55 40 69 29 78
-11 9 -22 -1 -53 -47z"/>
<path d="M3950 3712 c0 -132 -3 -157 -25 -222 -30 -89 -30 -88 -2 -92 22 -3
22 -6 25 -160 l3 -158 69 0 70 0 0 160 0 161 123 -3 122 -3 3 -157 3 -158 69
0 70 0 0 390 0 390 -70 0 -69 0 -3 -157 -3 -158 -122 -3 -123 -3 0 161 0 160
-70 0 -70 0 0 -148z"/>
<path d="M4780 3533 c-95 -180 -188 -356 -207 -390 l-35 -63 84 0 84 0 123
236 124 235 21 -38 c12 -21 68 -127 125 -235 l103 -198 83 0 83 0 -180 343
c-99 188 -193 364 -208 390 l-27 49 -173 -329z"/>
<path d="M7140 3708 c0 -139 -3 -162 -25 -228 -14 -40 -25 -77 -25 -82 0 -4
11 -8 25 -8 l25 0 0 -155 0 -155 70 0 70 0 0 155 c0 154 0 155 23 155 15 0 68
-46 177 -155 l155 -155 100 0 100 0 -153 153 c-83 84 -152 155 -152 158 0 4
16 9 36 12 50 8 98 44 126 92 19 34 23 55 23 130 0 80 -3 95 -27 137 -20 33
-41 53 -75 70 -45 21 -62 23 -260 26 l-213 4 0 -154z m410 -18 c14 -14 20 -33
20 -62 0 -77 -22 -88 -174 -88 l-116 0 0 85 0 85 125 0 c112 0 127 -2 145 -20z"/>
<path d="M6471 3788 c-12 -34 -21 -66 -21 -70 0 -4 54 -8 120 -8 l120 0 0
-320 0 -320 70 0 70 0 2 318 3 317 98 3 97 3 0 69 0 70 -269 0 -269 0 -21 -62z"/>
<path d="M8048 3836 c-61 -22 -122 -62 -167 -111 -41 -45 -91 -135 -91 -165 0
-9 -4 -20 -9 -25 -5 -6 -17 -35 -26 -65 -10 -30 -20 -61 -23 -67 -3 -9 6 -13
27 -13 23 0 31 -5 31 -17 0 -70 113 -211 204 -257 60 -31 175 -49 267 -44 l54
3 22 60 c12 33 22 66 22 73 1 9 -28 12 -112 12 -126 0 -163 8 -219 47 -34 23
-88 95 -88 116 0 4 63 7 139 7 l139 0 21 62 c12 34 21 68 21 75 0 10 -35 13
-160 13 -88 0 -160 2 -160 5 0 17 33 65 67 97 52 51 107 68 217 68 l92 0 18
58 c10 31 21 63 23 70 7 17 -258 16 -309 -2z"/>
<path d="M8440 3697 c0 -137 -3 -161 -25 -227 -14 -40 -25 -75 -25 -77 0 -2
11 -3 25 -3 l25 0 0 -160 0 -160 70 0 70 0 0 265 c0 146 3 265 8 265 4 0 50
-75 102 -165 l94 -165 46 0 46 0 94 166 95 166 3 -266 2 -266 75 0 75 0 0 390
0 391 -91 -3 -92 -3 -101 -177 c-55 -98 -103 -178 -106 -178 -3 0 -52 81 -108
180 l-104 180 -89 0 -89 0 0 -153z"/>
<path d="M9595 3836 c-54 -17 -82 -33 -132 -73 -65 -52 -101 -113 -149 -249
l-43 -124 25 0 c15 0 27 -7 30 -17 42 -124 115 -213 220 -264 59 -30 75 -32
187 -37 l122 -5 23 70 c12 38 22 72 22 76 0 4 -53 7 -119 7 -160 0 -212 20
-272 103 -48 66 -47 67 110 67 l139 0 21 62 c12 34 21 66 21 70 0 4 -72 8
-160 8 -105 0 -160 4 -160 10 0 21 29 65 62 96 58 55 93 67 210 72 l107 5 21
60 c11 34 20 65 20 69 0 13 -261 8 -305 -6z"/>
<path d="M5730 3796 c0 -28 4 -35 23 -39 l22 -4 -22 -2 c-20 -1 -23 -7 -23
-41 l0 -41 45 2 c24 2 48 0 51 -4 4 -4 2 -7 -4 -7 -7 0 -12 -15 -12 -34 0 -33
2 -35 38 -38 36 -3 37 -4 40 -45 3 -34 7 -43 25 -46 l22 -4 -22 -2 c-19 -1
-23 -7 -23 -35 0 -30 4 -35 28 -39 l27 -4 -27 -2 c-24 -1 -27 -5 -31 -43 l-4
-43 -1 43 c-2 41 -3 42 -37 42 l-35 0 0 -80 c0 -57 4 -80 13 -80 8 0 9 -2 1
-8 -7 -4 -14 -16 -17 -27 -4 -18 -5 -18 -6 3 -1 18 -7 22 -36 22 -33 0 -35 -2
-35 -34 0 -28 4 -35 23 -39 l22 -4 -22 -2 c-20 -1 -23 -7 -23 -41 l0 -41 82 3
83 3 85 122 c47 67 87 124 90 127 3 3 45 -53 94 -125 l88 -129 85 0 c65 0 82
3 77 13 -4 6 -57 85 -116 175 -60 90 -111 169 -114 176 -3 7 47 95 110 195 64
99 116 183 116 186 0 3 -40 5 -88 5 l-88 0 -81 -131 -82 -131 -24 39 c-13 21
-50 80 -81 131 -61 99 -86 115 -86 57 0 -33 -2 -35 -35 -35 -33 0 -35 2 -35
35 0 34 -1 35 -40 35 -39 0 -40 -1 -40 -34z m310 -257 c0 -39 -1 -40 -32 -37
-30 3 -33 6 -36 41 -3 36 -3 37 32 37 35 0 36 -1 36 -41z m85 -84 c0 -28 -3
-30 -35 -30 -32 0 -35 3 -38 33 -3 33 -3 33 35 30 35 -3 38 -5 38 -33z m-165
-170 c0 -33 -2 -35 -35 -35 -33 0 -35 2 -35 35 0 33 2 35 35 35 33 0 35 -2 35
-35z"/>
<path d="M5730 3625 c0 -33 2 -35 35 -35 33 0 35 2 35 35 0 33 -2 35 -35 35
-33 0 -35 -2 -35 -35z"/>
<path d="M5730 3540 c0 -39 1 -40 35 -40 34 0 35 1 35 40 0 39 -1 40 -35 40
-34 0 -35 -1 -35 -40z"/>
<path d="M5730 3455 c0 -33 2 -35 35 -35 33 0 35 2 35 35 0 33 -2 35 -35 35
-33 0 -35 -2 -35 -35z"/>
<path d="M5810 3455 c0 -33 2 -35 35 -35 33 0 35 2 35 35 0 33 -2 35 -35 35
-33 0 -35 -2 -35 -35z"/>
<path d="M5730 3290 c0 -39 1 -40 35 -40 34 0 35 1 35 40 0 39 -1 40 -35 40
-34 0 -35 -1 -35 -40z"/>
<path d="M9104 2896 c-35 -16 -65 -79 -46 -98 17 -17 46 -4 52 22 4 18 13 25
30 25 21 0 25 -5 28 -36 2 -29 -8 -51 -58 -127 -33 -51 -60 -101 -60 -112 0
-18 7 -20 85 -20 84 0 85 0 85 24 0 23 -4 25 -50 28 l-50 3 49 74 c28 41 53
91 56 112 8 49 -14 93 -56 108 -18 6 -32 11 -33 11 -1 -1 -15 -7 -32 -14z"/>
<path d="M9320 2897 c-40 -20 -50 -53 -50 -169 0 -127 8 -154 54 -173 39 -16
60 -12 94 18 21 19 22 28 22 151 -1 136 -5 152 -47 174 -27 15 -42 15 -73 -1z
m64 -63 c3 -9 6 -60 6 -114 0 -101 -11 -130 -45 -116 -12 4 -15 27 -15 119 0
63 3 117 7 120 12 13 41 7 47 -9z"/>
<path d="M9545 2901 c-31 -13 -53 -43 -57 -76 -3 -26 0 -30 22 -30 18 0 26 7
30 25 4 18 14 26 32 28 58 7 43 -58 -42 -189 -71 -107 -70 -109 40 -109 89 0
90 0 90 25 0 24 -3 25 -55 25 l-56 0 41 61 c75 109 88 168 48 213 -26 28 -63
39 -93 27z"/>
<path d="M9752 2900 c-36 -15 -52 -68 -52 -173 0 -52 5 -109 11 -127 25 -72
133 -72 158 0 16 48 14 213 -4 255 -19 48 -63 65 -113 45z m63 -175 l0 -120
-25 0 c-25 0 -25 0 -28 109 -1 61 0 116 3 124 3 7 15 12 27 10 22 -3 23 -6 23
-123z"/>
</g>
</svg>
